<?xml version="1.0" standalone="no"?>
<!DOCTYPE svg PUBLIC "-//W3C//DTD SVG 20010904//EN"
 "http://www.w3.org/TR/2001/REC-SVG-20010904/DTD/svg10.dtd">
<svg version="1.0" xmlns="http://www.w3.org/2000/svg"
 width="2040.000000pt" height="2040.000000pt" viewBox="0 0 2040.000000 2040.000000"
 preserveAspectRatio="xMidYMid meet">
<metadata>
Created by potrace 1.14, written by Peter Selinger 2001-2017
</metadata>
<g transform="translate(0.000000,2040.000000) scale(0.100000,-0.100000)"
fill="#000000" stroke="none">
<path d="M10008 20395 c-2 -1 -48 -5 -103 -9 -55 -4 -115 -9 -135 -11 -56 -7
-215 -29 -220 -30 -3 -1 -25 -4 -50 -9 -392 -63 -918 -250 -1264 -448 -39 -22
-96 -54 -126 -71 -30 -16 -62 -36 -71 -43 -8 -8 -18 -14 -21 -14 -3 0 -162
-90 -354 -201 -192 -111 -367 -211 -389 -224 -22 -12 -94 -54 -160 -92 -66
-39 -140 -81 -165 -95 -25 -14 -85 -49 -135 -78 -49 -29 -104 -61 -121 -70
-17 -10 -123 -71 -235 -135 -112 -65 -217 -126 -234 -135 -16 -9 -190 -109
-385 -222 -195 -113 -368 -213 -385 -222 -16 -9 -45 -26 -64 -37 -29 -18 -223
-129 -341 -197 -97 -55 -168 -96 -195 -113 -16 -10 -36 -22 -44 -25 -7 -4 -50
-28 -95 -54 -44 -26 -157 -91 -251 -145 -93 -54 -226 -130 -295 -170 -69 -39
-186 -107 -260 -150 -74 -43 -342 -197 -595 -343 -678 -390 -776 -453 -1045
-676 -142 -118 -437 -419 -532 -542 -12 -16 -25 -31 -28 -34 -18 -16 -139
-184 -212 -295 -138 -209 -249 -416 -337 -626 -29 -68 -57 -133 -62 -144 -9
-20 -97 -277 -104 -305 -2 -8 -22 -87 -45 -175 -63 -246 -98 -476 -116 -750
-9 -139 -10 -6424 -1 -6600 4 -71 9 -148 12 -170 3 -22 10 -80 16 -130 6 -49
13 -99 15 -110 2 -10 6 -37 10 -60 3 -22 9 -58 14 -80 5 -22 11 -54 15 -72 10
-58 65 -266 101 -383 124 -396 341 -825 593 -1168 42 -58 172 -222 196 -248 5
-6 42 -47 81 -90 105 -116 296 -301 364 -352 19 -15 40 -32 45 -38 30 -31 356
-274 369 -274 3 0 31 -17 63 -38 32 -21 243 -146 468 -277 226 -131 520 -302
655 -380 135 -78 261 -152 280 -163 19 -11 118 -68 220 -127 102 -60 293 -171
425 -247 132 -77 247 -144 255 -148 17 -10 95 -56 550 -320 274 -160 482 -280
585 -340 117 -67 542 -314 930 -540 253 -147 474 -275 490 -284 17 -9 44 -25
60 -35 303 -184 726 -418 880 -488 202 -92 511 -201 675 -239 164 -37 241 -54
270 -58 19 -3 44 -7 55 -10 11 -2 38 -7 60 -10 22 -4 56 -10 75 -13 19 -4 253
-8 520 -9 530 -3 568 0 858 61 70 15 131 28 137 30 56 11 231 64 350 105 323
112 496 196 965 470 8 5 69 40 135 78 351 203 839 485 867 502 18 11 40 23 48
27 8 4 35 19 60 33 25 15 119 70 210 123 225 129 455 262 1055 609 668 386
773 447 809 468 17 9 139 80 271 157 132 76 247 142 255 146 8 4 29 15 45 26
17 10 309 179 650 376 341 197 690 401 775 453 349 216 668 490 950 818 248
288 483 669 645 1049 55 128 174 480 188 555 3 14 8 32 11 40 3 8 7 26 10 40
2 14 11 54 19 90 8 36 18 83 21 105 4 22 13 78 21 125 13 76 21 140 31 235 15
147 18 694 18 3455 -1 2825 -3 3377 -19 3485 -2 17 -9 68 -15 115 -29 227 -72
436 -132 635 -281 937 -851 1707 -1664 2248 -71 48 -135 87 -141 87 -6 0 -13
3 -15 8 -1 4 -15 14 -30 22 -15 8 -74 42 -130 74 -57 33 -215 124 -353 204
-137 79 -275 159 -305 177 -30 18 -75 44 -100 57 -25 14 -101 58 -170 98 -69
40 -141 81 -160 92 -162 92 -460 264 -482 279 -15 11 -29 19 -32 19 -3 0 -71
39 -151 86 -81 47 -165 96 -188 108 -23 13 -82 47 -132 76 -120 70 -548 317
-605 348 -25 14 -89 52 -143 84 -55 32 -101 58 -103 58 -3 0 -30 16 -60 35
-30 19 -56 35 -58 35 -3 0 -50 27 -106 60 -56 33 -103 60 -106 60 -4 0 -126
72 -154 91 -8 5 -27 15 -42 22 -16 6 -28 15 -28 19 0 4 -4 8 -9 8 -5 0 -80 41
-168 92 -87 50 -213 123 -281 162 -68 39 -137 79 -155 90 -77 44 -841 484
-1024 590 -311 178 -478 257 -743 353 -160 58 -367 119 -460 137 -14 2 -47 10
-75 16 -68 16 -83 19 -130 25 -22 3 -47 8 -56 11 -9 2 -34 6 -55 9 -22 2 -52
6 -69 9 -16 2 -64 8 -105 11 -41 4 -84 9 -95 12 -22 5 -522 13 -527 8z m362
-1590 c63 -3 129 -7 145 -10 92 -12 127 -18 195 -31 41 -8 111 -24 155 -35 44
-12 85 -22 92 -23 7 -1 16 -5 19 -9 4 -4 15 -7 24 -7 27 0 245 -86 363 -144
62 -29 163 -83 225 -120 62 -36 132 -77 155 -90 23 -13 98 -56 167 -96 69 -40
145 -84 170 -98 25 -14 62 -36 82 -49 21 -12 42 -23 48 -23 5 0 10 -4 10 -10
0 -5 4 -10 10 -10 5 0 69 -35 142 -78 74 -43 140 -81 148 -85 8 -4 31 -17 50
-28 19 -12 134 -79 255 -149 554 -321 802 -464 820 -474 20 -11 256 -149 285
-166 28 -17 1025 -593 1060 -612 19 -11 49 -27 65 -37 17 -10 165 -96 330
-191 165 -95 312 -181 327 -191 15 -10 29 -19 32 -19 3 0 46 -25 97 -55 50
-30 93 -55 95 -55 2 0 27 -14 56 -31 29 -18 67 -40 83 -49 123 -71 593 -342
605 -349 8 -5 47 -28 85 -52 244 -146 496 -369 680 -599 280 -350 481 -803
541 -1215 2 -16 7 -43 9 -60 3 -16 9 -59 13 -95 9 -87 9 -6424 0 -6520 -5 -41
-10 -85 -12 -97 -3 -11 -7 -43 -11 -70 -13 -94 -77 -340 -122 -463 -45 -126
-163 -378 -208 -445 -14 -20 -25 -38 -25 -40 0 -8 -116 -174 -179 -255 -85
-110 -312 -338 -421 -422 -109 -84 -223 -161 -330 -223 -46 -28 -94 -55 -105
-62 -11 -7 -27 -15 -35 -19 -8 -4 -31 -17 -50 -29 -19 -12 -55 -33 -80 -47
-25 -14 -112 -65 -195 -113 -82 -48 -166 -97 -185 -107 -77 -44 -370 -214
-455 -263 -49 -29 -106 -62 -125 -73 -37 -21 -237 -136 -990 -571 -250 -145
-472 -274 -492 -287 -21 -13 -40 -24 -44 -24 -3 0 -18 -8 -32 -18 -15 -11 -52
-33 -82 -49 -30 -17 -138 -79 -240 -138 -102 -59 -201 -117 -220 -127 -19 -11
-102 -59 -185 -107 -82 -48 -177 -103 -210 -122 -33 -19 -68 -38 -77 -44 -10
-5 -122 -70 -250 -144 -128 -74 -264 -153 -303 -176 -38 -23 -176 -103 -305
-177 -129 -75 -251 -145 -270 -157 -19 -11 -53 -31 -75 -43 -22 -12 -47 -27
-56 -33 -48 -30 -236 -129 -319 -169 -197 -93 -412 -162 -627 -201 -193 -35
-251 -40 -488 -40 -206 0 -290 5 -410 26 -33 6 -71 13 -85 15 -197 32 -481
129 -690 234 -101 50 -109 55 -265 145 -55 32 -158 92 -230 133 -71 41 -163
95 -202 119 -40 23 -75 43 -79 43 -3 0 -18 8 -32 19 -15 10 -47 29 -72 43 -76
42 -533 307 -650 377 -19 11 -42 24 -50 28 -8 4 -62 34 -120 68 -144 85 -485
283 -540 313 -25 14 -73 43 -108 64 -34 21 -64 38 -66 38 -2 0 -81 46 -177
101 -96 56 -196 114 -224 130 -27 15 -124 70 -214 123 -90 53 -165 96 -167 96
-3 0 -17 8 -32 19 -22 15 -309 182 -462 268 -44 25 -176 102 -450 261 -118 69
-235 136 -260 150 -25 13 -49 28 -55 32 -5 4 -30 19 -55 32 -47 26 -399 230
-460 267 -19 11 -51 29 -70 39 -141 75 -440 261 -547 341 -111 83 -337 294
-414 386 -271 326 -462 700 -552 1080 -14 61 -28 121 -31 135 -2 14 -9 52 -15
85 -5 33 -14 92 -18 130 -10 92 -10 6472 0 6550 12 91 27 186 37 230 5 22 11
54 15 72 3 18 9 43 15 57 5 15 7 26 5 26 -3 0 1 17 9 38 7 20 23 69 35 107 23
71 43 125 67 182 8 17 14 34 14 38 0 3 26 59 59 123 142 284 304 507 523 720
93 91 262 233 302 254 11 6 23 14 26 17 8 11 139 95 215 138 200 114 488 281
550 318 39 23 95 55 125 72 30 17 224 128 430 248 206 120 389 226 405 235 42
24 196 113 415 240 102 59 201 117 220 127 19 11 145 84 280 163 135 78 265
154 290 168 25 14 83 48 130 75 47 27 110 63 140 80 30 17 95 55 144 84 49 29
90 53 91 53 1 0 54 30 116 66 63 37 139 80 169 97 30 16 62 36 71 43 8 8 18
14 20 14 5 0 82 44 399 227 85 50 313 181 505 293 193 111 387 224 433 251 45
27 84 49 86 49 2 0 33 17 67 38 239 144 558 277 759 317 8 2 33 8 55 14 22 6
58 13 80 16 22 4 47 8 55 10 8 2 38 7 65 10 28 4 61 8 75 11 14 2 79 7 145 10
66 4 121 7 123 9 1 1 21 0 45 -1 23 -2 94 -5 157 -9z"/>
<path d="M10137 17075 c-1 -2 -45 -5 -97 -8 -232 -15 -504 -84 -718 -183 -40
-19 -75 -34 -78 -34 -3 0 -345 -194 -591 -337 -91 -52 -502 -288 -528 -303
-16 -10 -138 -79 -270 -155 -132 -76 -256 -147 -275 -158 -19 -11 -75 -43
-125 -72 -49 -29 -106 -62 -125 -72 -19 -11 -111 -64 -205 -118 -93 -54 -336
-193 -540 -310 -203 -117 -500 -288 -660 -380 -159 -92 -309 -177 -331 -190
-23 -13 -149 -85 -280 -161 -132 -75 -248 -142 -259 -148 -91 -50 -269 -176
-351 -248 -78 -68 -212 -207 -273 -283 -198 -247 -374 -614 -427 -890 -2 -11
-6 -31 -9 -45 -10 -48 -15 -75 -20 -115 -3 -22 -8 -58 -12 -80 -9 -58 -12
-5008 -2 -5085 4 -36 10 -87 13 -115 8 -64 13 -91 36 -190 119 -507 424 -958
851 -1261 68 -49 367 -228 589 -352 25 -14 115 -66 200 -115 124 -71 924 -531
1062 -611 18 -10 154 -88 302 -173 148 -85 290 -166 315 -180 25 -14 51 -29
56 -33 6 -4 30 -19 55 -32 47 -27 293 -168 515 -296 72 -41 144 -83 161 -92
17 -10 123 -71 235 -135 112 -65 220 -126 239 -137 19 -11 49 -27 65 -37 50
-30 227 -132 275 -159 25 -14 102 -58 173 -99 70 -40 129 -73 131 -73 2 0 42
-17 88 -39 142 -66 365 -136 493 -155 23 -4 52 -9 65 -11 98 -20 419 -27 560
-12 203 22 469 94 652 178 78 37 457 248 863 484 55 32 251 144 435 250 184
106 441 253 570 327 129 75 258 148 285 163 28 15 55 31 60 36 6 4 73 43 150
87 134 75 582 333 648 372 30 18 48 28 107 61 40 23 248 142 283 163 35 20
420 241 477 274 48 27 159 91 195 112 17 10 64 37 105 60 389 221 613 420 823
734 133 197 261 488 302 686 2 8 10 47 19 85 42 191 41 150 41 2745 0 1367 -4
2519 -8 2560 -24 243 -93 493 -195 713 -131 279 -325 535 -552 727 -149 127
-203 162 -561 368 -162 92 -449 258 -639 367 -190 109 -358 206 -375 215 -158
91 -777 447 -800 461 -16 11 -37 22 -45 26 -8 4 -94 53 -190 108 -205 119
-906 522 -971 558 -24 14 -217 125 -428 247 -212 122 -389 222 -394 223 -5 1
-46 21 -91 45 -148 79 -429 180 -546 198 -19 3 -41 7 -49 10 -52 17 -459 51
-474 39z m2408 -6875 l0 -2345 -2342 0 -2343 0 0 2345 0 2345 2342 0 2343 0 0
-2345z"/>
</g>
</svg>
